<svg width="100%" viewBox="0 0 680 180" role="img" xmlns="http://www.w3.org/2000/svg">
<title>Matrix rain banner</title>
<desc>Dark background with green falling matrix-style code and math characters</desc>
<defs>
  <linearGradient id="fadeTop" x1="0" y1="0" x2="0" y2="1">
    <stop offset="0%" stop-color="#060a12" stop-opacity="1"/>
    <stop offset="100%" stop-color="#060a12" stop-opacity="0"/>
  </linearGradient>
  <linearGradient id="fadeBot" x1="0" y1="0" x2="0" y2="1">
    <stop offset="0%" stop-color="#060a12" stop-opacity="0"/>
    <stop offset="100%" stop-color="#060a12" stop-opacity="1"/>
  </linearGradient>
</defs>
<style>
.bg{fill:#060a12}
.c{font-family:monospace;font-size:12px;fill:#00cc33}
.ch{fill:#aaffaa}
.cd{fill:#007a1f;font-size:11px}
@keyframes f1{0%,4%{opacity:0;transform:translateY(-180px)}8%{opacity:.9}85%{opacity:.5}100%{opacity:0;transform:translateY(360px)}}
.r0 .c{animation:f1 2.4s linear 0.0s infinite}
.r1 .c{animation:f1 3.1s linear 0.3s infinite}
.r2 .c{animation:f1 2.7s linear 0.7s infinite}
.r3 .c{animation:f1 3.4s linear 0.1s infinite}
.r4 .c{animation:f1 2.2s linear 0.9s infinite}
.r5 .c{animation:f1 2.9s linear 0.4s infinite}
.r6 .c{animation:f1 3.6s linear 1.1s infinite}
.r7 .c{animation:f1 2.5s linear 0.6s infinite}
.r8 .c{animation:f1 3.2s linear 0.2s infinite}
.r9 .c{animation:f1 2.8s linear 1.3s infinite}
.r10 .c{animation:f1 3.0s linear 0.5s infinite}
.r11 .c{animation:f1 2.3s linear 0.8s infinite}
.r12 .c{animation:f1 3.5s linear 1.5s infinite}
.r13 .c{animation:f1 2.6s linear 0.3s infinite}
.r14 .c{animation:f1 2.1s linear 1.0s infinite}
.r15 .c{animation:f1 3.3s linear 0.1s infinite}
.r16 .c{animation:f1 2.9s linear 1.2s infinite}
.r17 .c{animation:f1 3.7s linear 0.6s infinite}
.r18 .c{animation:f1 2.4s linear 1.7s infinite}
.r19 .c{animation:f1 3.1s linear 0.4s infinite}
.r20 .c{animation:f1 2.8s linear 0.9s infinite}
.r21 .c{animation:f1 3.4s linear 1.4s infinite}
.r22 .c{animation:f1 2.2s linear 0.2s infinite}
.r23 .c{animation:f1 2.7s linear 0.7s infinite}
.r24 .c{animation:f1 3.2s linear 1.6s infinite}
.r25 .c{animation:f1 2.5s linear 0.5s infinite}
.r26 .c{animation:f1 3.0s linear 1.1s infinite}
.r27 .c{animation:f1 2.3s linear 0.3s infinite}
.r28 .c{animation:f1 3.6s linear 1.9s infinite}
.r29 .c{animation:f1 2.9s linear 0.8s infinite}
.r30 .c{animation:f1 3.1s linear 0.1s infinite}
.r31 .c{animation:f1 2.6s linear 1.3s infinite}
.r32 .c{animation:f1 2.4s linear 0.6s infinite}
.r33 .c{animation:f1 3.3s linear 1.0s infinite}
.r34 .c{animation:f1 2.8s linear 0.4s infinite}
.r35 .c{animation:f1 3.5s linear 1.8s infinite}
.r36 .c{animation:f1 2.1s linear 0.2s infinite}
.r37 .c{animation:f1 2.9s linear 1.2s infinite}
.r38 .c{animation:f1 3.2s linear 0.7s infinite}
.r39 .c{animation:f1 2.7s linear 1.5s infinite}
.r40 .c{animation:f1 3.0s linear 0.3s infinite}
.r41 .c{animation:f1 2.5s linear 0.9s infinite}
.r42 .c{animation:f1 3.4s linear 1.7s infinite}
.r43 .c{animation:f1 2.3s linear 0.5s infinite}
.r44 .c{animation:f1 2.6s linear 1.1s infinite}
.r45 .c{animation:f1 3.1s linear 0.2s infinite}
.r46 .c{animation:f1 2.8s linear 1.4s infinite}
.r47 .c{animation:f1 3.7s linear 0.8s infinite}
.r48 .c{animation:f1 2.2s linear 1.6s infinite}
.r49 .c{animation:f1 3.3s linear 0.4s infinite}
.r50 .c{animation:f1 2.4s linear 1.9s infinite}
.r51 .c{animation:f1 2.9s linear 0.6s infinite}
</style>
<rect class="bg" width="680" height="180"/>
<g class="r0"><text class="c ch" x="4" y="0">1</text><text class="c" x="4" y="14">∇</text><text class="c" x="4" y="28">0</text><text class="c" x="4" y="42">σ</text><text class="c cd" x="4" y="56">1</text><text class="c cd" x="4" y="70">0</text></g>
<g class="r1"><text class="c ch" x="17" y="0">0</text><text class="c" x="17" y="14">1</text><text class="c" x="17" y="28">λ</text><text class="c" x="17" y="42">0</text><text class="c cd" x="17" y="56">∂</text><text class="c cd" x="17" y="70">1</text></g>
<g class="r2"><text class="c ch" x="30" y="0">∂</text><text class="c" x="30" y="14">1</text><text class="c" x="30" y="28">0</text><text class="c" x="30" y="42">μ</text><text class="c cd" x="30" y="56">1</text><text class="c cd" x="30" y="70">0</text></g>
<g class="r3"><text class="c ch" x="43" y="0">1</text><text class="c" x="43" y="14">σ</text><text class="c" x="43" y="28">0</text><text class="c" x="43" y="42">1</text><text class="c cd" x="43" y="56">∑</text><text class="c cd" x="43" y="70">0</text></g>
<g class="r4"><text class="c ch" x="56" y="0">0</text><text class="c" x="56" y="14">1</text><text class="c" x="56" y="28">π</text><text class="c" x="56" y="42">0</text><text class="c cd" x="56" y="56">1</text><text class="c cd" x="56" y="70">λ</text></g>
<g class="r5"><text class="c ch" x="69" y="0">μ</text><text class="c" x="69" y="14">0</text><text class="c" x="69" y="28">1</text><text class="c" x="69" y="42">∇</text><text class="c cd" x="69" y="56">0</text><text class="c cd" x="69" y="70">1</text></g>
<g class="r6"><text class="c ch" x="82" y="0">1</text><text class="c" x="82" y="14">0</text><text class="c" x="82" y="28">σ</text><text class="c" x="82" y="42">1</text><text class="c cd" x="82" y="56">0</text><text class="c cd" x="82" y="70">∂</text></g>
<g class="r7"><text class="c ch" x="95" y="0">0</text><text class="c" x="95" y="14">λ</text><text class="c" x="95" y="28">1</text><text class="c" x="95" y="42">0</text><text class="c cd" x="95" y="56">1</text><text class="c cd" x="95" y="70">μ</text></g>
<g class="r8"><text class="c ch" x="108" y="0">∑</text><text class="c" x="108" y="14">1</text><text class="c" x="108" y="28">0</text><text class="c" x="108" y="42">1</text><text class="c cd" x="108" y="56">σ</text><text class="c cd" x="108" y="70">0</text></g>
<g class="r9"><text class="c ch" x="121" y="0">1</text><text class="c" x="121" y="14">0</text><text class="c" x="121" y="28">∇</text><text class="c" x="121" y="42">1</text><text class="c cd" x="121" y="56">0</text><text class="c cd" x="121" y="70">π</text></g>
<g class="r10"><text class="c ch" x="134" y="0">0</text><text class="c" x="134" y="14">1</text><text class="c" x="134" y="28">μ</text><text class="c" x="134" y="42">0</text><text class="c cd" x="134" y="56">1</text><text class="c cd" x="134" y="70">∂</text></g>
<g class="r11"><text class="c ch" x="147" y="0">λ</text><text class="c" x="147" y="14">0</text><text class="c" x="147" y="28">1</text><text class="c" x="147" y="42">σ</text><text class="c cd" x="147" y="56">0</text><text class="c cd" x="147" y="70">1</text></g>
<g class="r12"><text class="c ch" x="160" y="0">1</text><text class="c" x="160" y="14">∑</text><text class="c" x="160" y="28">0</text><text class="c" x="160" y="42">1</text><text class="c cd" x="160" y="56">λ</text><text class="c cd" x="160" y="70">0</text></g>
<g class="r13"><text class="c ch" x="173" y="0">0</text><text class="c" x="173" y="14">1</text><text class="c" x="173" y="28">∇</text><text class="c" x="173" y="42">0</text><text class="c cd" x="173" y="56">1</text><text class="c cd" x="173" y="70">σ</text></g>
<g class="r14"><text class="c ch" x="186" y="0">π</text><text class="c" x="186" y="14">0</text><text class="c" x="186" y="28">1</text><text class="c" x="186" y="42">μ</text><text class="c cd" x="186" y="56">0</text><text class="c cd" x="186" y="70">1</text></g>
<g class="r15"><text class="c ch" x="199" y="0">1</text><text class="c" x="199" y="14">σ</text><text class="c" x="199" y="28">0</text><text class="c" x="199" y="42">∂</text><text class="c cd" x="199" y="56">1</text><text class="c cd" x="199" y="70">0</text></g>
<g class="r16"><text class="c ch" x="212" y="0">0</text><text class="c" x="212" y="14">1</text><text class="c" x="212" y="28">λ</text><text class="c" x="212" y="42">0</text><text class="c cd" x="212" y="56">∇</text><text class="c cd" x="212" y="70">1</text></g>
<g class="r17"><text class="c ch" x="225" y="0">∂</text><text class="c" x="225" y="14">0</text><text class="c" x="225" y="28">1</text><text class="c" x="225" y="42">π</text><text class="c cd" x="225" y="56">0</text><text class="c cd" x="225" y="70">1</text></g>
<g class="r18"><text class="c ch" x="238" y="0">1</text><text class="c" x="238" y="14">μ</text><text class="c" x="238" y="28">0</text><text class="c" x="238" y="42">1</text><text class="c cd" x="238" y="56">σ</text><text class="c cd" x="238" y="70">0</text></g>
<g class="r19"><text class="c ch" x="251" y="0">0</text><text class="c" x="251" y="14">∑</text><text class="c" x="251" y="28">1</text><text class="c" x="251" y="42">0</text><text class="c cd" x="251" y="56">λ</text><text class="c cd" x="251" y="70">1</text></g>
<g class="r20"><text class="c ch" x="264" y="0">σ</text><text class="c" x="264" y="14">1</text><text class="c" x="264" y="28">0</text><text class="c" x="264" y="42">∇</text><text class="c cd" x="264" y="56">1</text><text class="c cd" x="264" y="70">0</text></g>
<g class="r21"><text class="c ch" x="277" y="0">1</text><text class="c" x="277" y="14">0</text><text class="c" x="277" y="28">μ</text><text class="c" x="277" y="42">1</text><text class="c cd" x="277" y="56">0</text><text class="c cd" x="277" y="70">∂</text></g>
<g class="r22"><text class="c ch" x="290" y="0">0</text><text class="c" x="290" y="14">λ</text><text class="c" x="290" y="28">1</text><text class="c" x="290" y="42">0</text><text class="c cd" x="290" y="56">π</text><text class="c cd" x="290" y="70">1</text></g>
<g class="r23"><text class="c ch" x="303" y="0">∇</text><text class="c" x="303" y="14">0</text><text class="c" x="303" y="28">1</text><text class="c" x="303" y="42">σ</text><text class="c cd" x="303" y="56">0</text><text class="c cd" x="303" y="70">∑</text></g>
<g class="r24"><text class="c ch" x="316" y="0">1</text><text class="c" x="316" y="14">π</text><text class="c" x="316" y="28">0</text><text class="c" x="316" y="42">1</text><text class="c cd" x="316" y="56">μ</text><text class="c cd" x="316" y="70">0</text></g>
<g class="r25"><text class="c ch" x="329" y="0">0</text><text class="c" x="329" y="14">1</text><text class="c" x="329" y="28">∂</text><text class="c" x="329" y="42">0</text><text class="c cd" x="329" y="56">1</text><text class="c cd" x="329" y="70">λ</text></g>
<g class="r26"><text class="c ch" x="342" y="0">μ</text><text class="c" x="342" y="14">0</text><text class="c" x="342" y="28">1</text><text class="c" x="342" y="42">∇</text><text class="c cd" x="342" y="56">0</text><text class="c cd" x="342" y="70">1</text></g>
<g class="r27"><text class="c ch" x="355" y="0">1</text><text class="c" x="355" y="14">σ</text><text class="c" x="355" y="28">0</text><text class="c" x="355" y="42">1</text><text class="c cd" x="355" y="56">∂</text><text class="c cd" x="355" y="70">0</text></g>
<g class="r28"><text class="c ch" x="368" y="0">0</text><text class="c" x="368" y="14">∑</text><text class="c" x="368" y="28">1</text><text class="c" x="368" y="42">0</text><text class="c cd" x="368" y="56">σ</text><text class="c cd" x="368" y="70">1</text></g>
<g class="r29"><text class="c ch" x="381" y="0">λ</text><text class="c" x="381" y="14">1</text><text class="c" x="381" y="28">0</text><text class="c" x="381" y="42">μ</text><text class="c cd" x="381" y="56">1</text><text class="c cd" x="381" y="70">0</text></g>
<g class="r30"><text class="c ch" x="394" y="0">1</text><text class="c" x="394" y="14">0</text><text class="c" x="394" y="28">π</text><text class="c" x="394" y="42">1</text><text class="c cd" x="394" y="56">0</text><text class="c cd" x="394" y="70">∇</text></g>
<g class="r31"><text class="c ch" x="407" y="0">0</text><text class="c" x="407" y="14">∂</text><text class="c" x="407" y="28">1</text><text class="c" x="407" y="42">0</text><text class="c cd" x="407" y="56">λ</text><text class="c cd" x="407" y="70">1</text></g>
<g class="r32"><text class="c ch" x="420" y="0">∇</text><text class="c" x="420" y="14">1</text><text class="c" x="420" y="28">0</text><text class="c" x="420" y="42">σ</text><text class="c cd" x="420" y="56">1</text><text class="c cd" x="420" y="70">0</text></g>
<g class="r33"><text class="c ch" x="433" y="0">1</text><text class="c" x="433" y="14">μ</text><text class="c" x="433" y="28">0</text><text class="c" x="433" y="42">∑</text><text class="c cd" x="433" y="56">0</text><text class="c cd" x="433" y="70">1</text></g>
<g class="r34"><text class="c ch" x="446" y="0">0</text><text class="c" x="446" y="14">1</text><text class="c" x="446" y="28">λ</text><text class="c" x="446" y="42">0</text><text class="c cd" x="446" y="56">∂</text><text class="c cd" x="446" y="70">1</text></g>
<g class="r35"><text class="c ch" x="459" y="0">σ</text><text class="c" x="459" y="14">0</text><text class="c" x="459" y="28">1</text><text class="c" x="459" y="42">π</text><text class="c cd" x="459" y="56">1</text><text class="c cd" x="459" y="70">0</text></g>
<g class="r36"><text class="c ch" x="472" y="0">1</text><text class="c" x="472" y="14">∇</text><text class="c" x="472" y="28">0</text><text class="c" x="472" y="42">1</text><text class="c cd" x="472" y="56">μ</text><text class="c cd" x="472" y="70">0</text></g>
<g class="r37"><text class="c ch" x="485" y="0">0</text><text class="c" x="485" y="14">1</text><text class="c" x="485" y="28">σ</text><text class="c" x="485" y="42">0</text><text class="c cd" x="485" y="56">∑</text><text class="c cd" x="485" y="70">1</text></g>
<g class="r38"><text class="c ch" x="498" y="0">∂</text><text class="c" x="498" y="14">0</text><text class="c" x="498" y="28">1</text><text class="c" x="498" y="42">λ</text><text class="c cd" x="498" y="56">0</text><text class="c cd" x="498" y="70">σ</text></g>
<g class="r39"><text class="c ch" x="511" y="0">1</text><text class="c" x="511" y="14">π</text><text class="c" x="511" y="28">0</text><text class="c" x="511" y="42">1</text><text class="c cd" x="511" y="56">∂</text><text class="c cd" x="511" y="70">0</text></g>
<g class="r40"><text class="c ch" x="524" y="0">0</text><text class="c" x="524" y="14">∑</text><text class="c" x="524" y="28">1</text><text class="c" x="524" y="42">0</text><text class="c cd" x="524" y="56">1</text><text class="c cd" x="524" y="70">∇</text></g>
<g class="r41"><text class="c ch" x="537" y="0">μ</text><text class="c" x="537" y="14">0</text><text class="c" x="537" y="28">1</text><text class="c" x="537" y="42">σ</text><text class="c cd" x="537" y="56">0</text><text class="c cd" x="537" y="70">1</text></g>
<g class="r42"><text class="c ch" x="550" y="0">1</text><text class="c" x="550" y="14">λ</text><text class="c" x="550" y="28">0</text><text class="c" x="550" y="42">1</text><text class="c cd" x="550" y="56">π</text><text class="c cd" x="550" y="70">0</text></g>
<g class="r43"><text class="c ch" x="563" y="0">0</text><text class="c" x="563" y="14">1</text><text class="c" x="563" y="28">∇</text><text class="c" x="563" y="42">0</text><text class="c cd" x="563" y="56">μ</text><text class="c cd" x="563" y="70">1</text></g>
<g class="r44"><text class="c ch" x="576" y="0">π</text><text class="c" x="576" y="14">0</text><text class="c" x="576" y="28">σ</text><text class="c" x="576" y="42">1</text><text class="c cd" x="576" y="56">0</text><text class="c cd" x="576" y="70">∂</text></g>
<g class="r45"><text class="c ch" x="589" y="0">1</text><text class="c" x="589" y="14">∂</text><text class="c" x="589" y="28">0</text><text class="c" x="589" y="42">λ</text><text class="c cd" x="589" y="56">1</text><text class="c cd" x="589" y="70">0</text></g>
<g class="r46"><text class="c ch" x="602" y="0">0</text><text class="c" x="602" y="14">1</text><text class="c" x="602" y="28">∑</text><text class="c" x="602" y="42">0</text><text class="c cd" x="602" y="56">σ</text><text class="c cd" x="602" y="70">1</text></g>
<g class="r47"><text class="c ch" x="615" y="0">∇</text><text class="c" x="615" y="14">1</text><text class="c" x="615" y="28">0</text><text class="c" x="615" y="42">μ</text><text class="c cd" x="615" y="56">1</text><text class="c cd" x="615" y="70">0</text></g>
<g class="r48"><text class="c ch" x="628" y="0">1</text><text class="c" x="628" y="14">σ</text><text class="c" x="628" y="28">0</text><text class="c" x="628" y="42">π</text><text class="c cd" x="628" y="56">0</text><text class="c cd" x="628" y="70">1</text></g>
<g class="r49"><text class="c ch" x="641" y="0">0</text><text class="c" x="641" y="14">λ</text><text class="c" x="641" y="28">1</text><text class="c" x="641" y="42">0</text><text class="c cd" x="641" y="56">∇</text><text class="c cd" x="641" y="70">1</text></g>
<g class="r50"><text class="c ch" x="654" y="0">∑</text><text class="c" x="654" y="14">0</text><text class="c" x="654" y="28">1</text><text class="c" x="654" y="42">∂</text><text class="c cd" x="654" y="56">0</text><text class="c cd" x="654" y="70">μ</text></g>
<g class="r51"><text class="c ch" x="667" y="0">1</text><text class="c" x="667" y="14">0</text><text class="c" x="667" y="28">σ</text><text class="c" x="667" y="42">1</text><text class="c cd" x="667" y="56">λ</text><text class="c cd" x="667" y="70">0</text></g>
<rect x="0" y="0" width="680" height="30" fill="url(#fadeTop)"/>
<rect x="0" y="150" width="680" height="30" fill="url(#fadeBot)"/>
</svg>
